<?xml version="1.0" encoding="UTF-8" standalone="no"?>
<!DOCTYPE svg PUBLIC "-//W3C//DTD SVG 1.1//EN"
 "http://www.w3.org/Graphics/SVG/1.1/DTD/svg11.dtd">
<!-- Generated by graphviz version 2.40.1 (20161225.0304)
 -->
<!-- Title: rtree Pages: 1 -->
<svg width="176pt" height="453pt"
 viewBox="0.00 0.00 176.20 453.18" xmlns="http://www.w3.org/2000/svg" xmlns:xlink="http://www.w3.org/1999/xlink">
<g id="graph0" class="graph" transform="scale(1 1) rotate(0) translate(4 449.1765)">
<title>rtree</title>
<polygon fill="#ffffff" stroke="transparent" points="-4,4 -4,-449.1765 172.1961,-449.1765 172.1961,4 -4,4"/>
<!-- 0 -->
<g id="node1" class="node">
<title>0</title>
<ellipse fill="#836fff" stroke="#000000" cx="115.098" cy="-423.0784" rx="22.1965" ry="22.1965"/>
<text text-anchor="middle" x="115.098" y="-419.3784" font-family="Times,serif" font-size="14.00" fill="#000000">2,2</text>
</g>
<!-- 1 -->
<g id="node2" class="node">
<title>1</title>
<ellipse fill="#836fff" stroke="#000000" cx="84.098" cy="-342.8824" rx="22.1965" ry="22.1965"/>
<text text-anchor="middle" x="84.098" y="-339.1824" font-family="Times,serif" font-size="14.00" fill="#000000">1,2</text>
</g>
<!-- 0&#45;&gt;1 -->
<g id="edge1" class="edge">
<title>0&#45;&gt;1</title>
<path fill="none" stroke="#000000" d="M107.1148,-402.4259C103.6704,-393.5154 99.5725,-382.9144 95.7957,-373.1439"/>
<polygon fill="#000000" stroke="#000000" points="99.0322,-371.809 92.162,-363.7436 92.503,-374.3329 99.0322,-371.809"/>
</g>
<!-- 6 -->
<g id="node7" class="node">
<title>6</title>
<ellipse fill="#836fff" stroke="#000000" cx="146.098" cy="-342.8824" rx="22.1965" ry="22.1965"/>
<text text-anchor="middle" x="146.098" y="-339.1824" font-family="Times,serif" font-size="14.00" fill="#000000">2,1</text>
</g>
<!-- 0&#45;&gt;6 -->
<g id="edge6" class="edge">
<title>0&#45;&gt;6</title>
<path fill="none" stroke="#000000" d="M123.0813,-402.4259C126.5257,-393.5154 130.6235,-382.9144 134.4004,-373.1439"/>
<polygon fill="#000000" stroke="#000000" points="137.6931,-374.3329 138.0341,-363.7436 131.1639,-371.809 137.6931,-374.3329"/>
</g>
<!-- 2 -->
<g id="node3" class="node">
<title>2</title>
<ellipse fill="#836fff" stroke="#000000" cx="22.098" cy="-262.6863" rx="22.1965" ry="22.1965"/>
<text text-anchor="middle" x="22.098" y="-258.9863" font-family="Times,serif" font-size="14.00" fill="#000000">1,1</text>
</g>
<!-- 1&#45;&gt;2 -->
<g id="edge2" class="edge">
<title>1&#45;&gt;2</title>
<path fill="none" stroke="#000000" d="M70.3382,-325.0842C61.9902,-314.2862 51.1965,-300.3247 41.9364,-288.3469"/>
<polygon fill="#000000" stroke="#000000" points="44.7048,-286.2053 35.8194,-280.4346 39.1668,-290.4868 44.7048,-286.2053"/>
</g>
<!-- 5 -->
<g id="node6" class="node">
<title>5</title>
<ellipse fill="#836fff" stroke="#000000" cx="84.098" cy="-262.6863" rx="22.1965" ry="22.1965"/>
<text text-anchor="middle" x="84.098" y="-258.9863" font-family="Times,serif" font-size="14.00" fill="#000000">2,0</text>
</g>
<!-- 1&#45;&gt;5 -->
<g id="edge5" class="edge">
<title>1&#45;&gt;5</title>
<path fill="none" stroke="#000000" d="M84.098,-320.5433C84.098,-312.6354 84.098,-303.5728 84.098,-295.0032"/>
<polygon fill="#000000" stroke="#000000" points="87.5981,-294.9055 84.098,-284.9056 80.5981,-294.9056 87.5981,-294.9055"/>
</g>
<!-- 3 -->
<g id="node4" class="node">
<title>3</title>
<ellipse fill="#836fff" stroke="#000000" cx="22.098" cy="-182.4902" rx="22.1965" ry="22.1965"/>
<text text-anchor="middle" x="22.098" y="-178.7902" font-family="Times,serif" font-size="14.00" fill="#000000">0,1</text>
</g>
<!-- 2&#45;&gt;3 -->
<g id="edge3" class="edge">
<title>2&#45;&gt;3</title>
<path fill="none" stroke="#000000" d="M22.098,-240.3472C22.098,-232.4393 22.098,-223.3767 22.098,-214.8071"/>
<polygon fill="#000000" stroke="#000000" points="25.5981,-214.7094 22.098,-204.7095 18.5981,-214.7095 25.5981,-214.7094"/>
</g>
<!-- 4 -->
<g id="node5" class="node">
<title>4</title>
<ellipse fill="#836fff" stroke="#000000" cx="22.098" cy="-102.2941" rx="22.1965" ry="22.1965"/>
<text text-anchor="middle" x="22.098" y="-98.5941" font-family="Times,serif" font-size="14.00" fill="#000000">1,0</text>
</g>
<!-- 3&#45;&gt;4 -->
<g id="edge4" class="edge">
<title>3&#45;&gt;4</title>
<path fill="none" stroke="#000000" d="M22.098,-160.1511C22.098,-152.2433 22.098,-143.1806 22.098,-134.611"/>
<polygon fill="#000000" stroke="#000000" points="25.5981,-134.5134 22.098,-124.5134 18.5981,-134.5134 25.5981,-134.5134"/>
</g>
<!-- 7 -->
<g id="node8" class="node">
<title>7</title>
<ellipse fill="#836fff" stroke="#000000" cx="146.098" cy="-262.6863" rx="22.1965" ry="22.1965"/>
<text text-anchor="middle" x="146.098" y="-258.9863" font-family="Times,serif" font-size="14.00" fill="#000000">0,2</text>
</g>
<!-- 6&#45;&gt;7 -->
<g id="edge7" class="edge">
<title>6&#45;&gt;7</title>
<path fill="none" stroke="#000000" d="M146.098,-320.5433C146.098,-312.6354 146.098,-303.5728 146.098,-295.0032"/>
<polygon fill="#000000" stroke="#000000" points="149.5981,-294.9055 146.098,-284.9056 142.5981,-294.9056 149.5981,-294.9055"/>
</g>
<!-- 8 -->
<g id="node9" class="node">
<title>8</title>
<ellipse fill="#836fff" stroke="#000000" cx="146.098" cy="-182.4902" rx="22.1965" ry="22.1965"/>
<text text-anchor="middle" x="146.098" y="-178.7902" font-family="Times,serif" font-size="14.00" fill="#000000">1,1</text>
</g>
<!-- 7&#45;&gt;8 -->
<g id="edge8" class="edge">
<title>7&#45;&gt;8</title>
<path fill="none" stroke="#000000" d="M146.098,-240.3472C146.098,-232.4393 146.098,-223.3767 146.098,-214.8071"/>
<polygon fill="#000000" stroke="#000000" points="149.5981,-214.7094 146.098,-204.7095 142.5981,-214.7095 149.5981,-214.7094"/>
</g>
<!-- 9 -->
<g id="node10" class="node">
<title>9</title>
<ellipse fill="#836fff" stroke="#000000" cx="146.098" cy="-102.2941" rx="22.1965" ry="22.1965"/>
<text text-anchor="middle" x="146.098" y="-98.5941" font-family="Times,serif" font-size="14.00" fill="#000000">0,1</text>
</g>
<!-- 8&#45;&gt;9 -->
<g id="edge9" class="edge">
<title>8&#45;&gt;9</title>
<path fill="none" stroke="#000000" d="M146.098,-160.1511C146.098,-152.2433 146.098,-143.1806 146.098,-134.611"/>
<polygon fill="#000000" stroke="#000000" points="149.5981,-134.5134 146.098,-124.5134 142.5981,-134.5134 149.5981,-134.5134"/>
</g>
<!-- 10 -->
<g id="node11" class="node">
<title>10</title>
<ellipse fill="#836fff" stroke="#000000" cx="146.098" cy="-22.098" rx="22.1965" ry="22.1965"/>
<text text-anchor="middle" x="146.098" y="-18.398" font-family="Times,serif" font-size="14.00" fill="#000000">1,0</text>
</g>
<!-- 9&#45;&gt;10 -->
<g id="edge10" class="edge">
<title>9&#45;&gt;10</title>
<path fill="none" stroke="#000000" d="M146.098,-79.955C146.098,-72.0472 146.098,-62.9845 146.098,-54.415"/>
<polygon fill="#000000" stroke="#000000" points="149.5981,-54.3173 146.098,-44.3173 142.5981,-54.3174 149.5981,-54.3173"/>
</g>
</g>
</svg>
