<?xml version="1.0" encoding="UTF-8" standalone="no"?>
<!DOCTYPE svg PUBLIC "-//W3C//DTD SVG 1.1//EN"
 "http://www.w3.org/Graphics/SVG/1.1/DTD/svg11.dtd">
<!-- Generated by graphviz version 2.40.1 (20161225.0304)
 -->
<!-- Title: rtree Pages: 1 -->
<svg width="362pt" height="614pt"
 viewBox="0.00 0.00 362.20 613.57" xmlns="http://www.w3.org/2000/svg" xmlns:xlink="http://www.w3.org/1999/xlink">
<g id="graph0" class="graph" transform="scale(1 1) rotate(0) translate(4 609.5686)">
<title>rtree</title>
<polygon fill="#ffffff" stroke="transparent" points="-4,4 -4,-609.5686 358.1961,-609.5686 358.1961,4 -4,4"/>
<!-- 0 -->
<g id="node1" class="node">
<title>0</title>
<ellipse fill="#836fff" stroke="#000000" cx="239.098" cy="-583.4706" rx="22.1965" ry="22.1965"/>
<text text-anchor="middle" x="239.098" y="-579.7706" font-family="Times,serif" font-size="14.00" fill="#000000">2,2</text>
</g>
<!-- 1 -->
<g id="node2" class="node">
<title>1</title>
<ellipse fill="#836fff" stroke="#000000" cx="177.098" cy="-503.2745" rx="22.1965" ry="22.1965"/>
<text text-anchor="middle" x="177.098" y="-499.5745" font-family="Times,serif" font-size="14.00" fill="#000000">2,1</text>
</g>
<!-- 0&#45;&gt;1 -->
<g id="edge1" class="edge">
<title>0&#45;&gt;1</title>
<path fill="none" stroke="#000000" d="M225.3382,-565.6725C216.9902,-554.8745 206.1965,-540.913 196.9364,-528.9351"/>
<polygon fill="#000000" stroke="#000000" points="199.7048,-526.7936 190.8194,-521.0229 194.1668,-531.075 199.7048,-526.7936"/>
</g>
<!-- 15 -->
<g id="node16" class="node">
<title>15</title>
<ellipse fill="#836fff" stroke="#000000" cx="270.098" cy="-503.2745" rx="22.1965" ry="22.1965"/>
<text text-anchor="middle" x="270.098" y="-499.5745" font-family="Times,serif" font-size="14.00" fill="#000000">1,5</text>
</g>
<!-- 0&#45;&gt;15 -->
<g id="edge15" class="edge">
<title>0&#45;&gt;15</title>
<path fill="none" stroke="#000000" d="M247.0813,-562.8181C250.5257,-553.9075 254.6235,-543.3066 258.4004,-533.5361"/>
<polygon fill="#000000" stroke="#000000" points="261.6931,-534.7251 262.0341,-524.1357 255.1639,-532.2012 261.6931,-534.7251"/>
</g>
<!-- 2 -->
<g id="node3" class="node">
<title>2</title>
<ellipse fill="#836fff" stroke="#000000" cx="115.098" cy="-423.0784" rx="22.1965" ry="22.1965"/>
<text text-anchor="middle" x="115.098" y="-419.3784" font-family="Times,serif" font-size="14.00" fill="#000000">2,0</text>
</g>
<!-- 1&#45;&gt;2 -->
<g id="edge2" class="edge">
<title>1&#45;&gt;2</title>
<path fill="none" stroke="#000000" d="M163.3382,-485.4764C154.9902,-474.6784 144.1965,-460.7169 134.9364,-448.739"/>
<polygon fill="#000000" stroke="#000000" points="137.7048,-446.5975 128.8194,-440.8268 132.1668,-450.8789 137.7048,-446.5975"/>
</g>
<!-- 7 -->
<g id="node8" class="node">
<title>7</title>
<ellipse fill="#836fff" stroke="#000000" cx="177.098" cy="-423.0784" rx="22.1965" ry="22.1965"/>
<text text-anchor="middle" x="177.098" y="-419.3784" font-family="Times,serif" font-size="14.00" fill="#000000">1,3</text>
</g>
<!-- 1&#45;&gt;7 -->
<g id="edge7" class="edge">
<title>1&#45;&gt;7</title>
<path fill="none" stroke="#000000" d="M177.098,-480.9354C177.098,-473.0276 177.098,-463.9649 177.098,-455.3954"/>
<polygon fill="#000000" stroke="#000000" points="180.5981,-455.2977 177.098,-445.2977 173.5981,-455.2977 180.5981,-455.2977"/>
</g>
<!-- 3 -->
<g id="node4" class="node">
<title>3</title>
<ellipse fill="#836fff" stroke="#000000" cx="84.098" cy="-342.8824" rx="22.1965" ry="22.1965"/>
<text text-anchor="middle" x="84.098" y="-339.1824" font-family="Times,serif" font-size="14.00" fill="#000000">1,1</text>
</g>
<!-- 2&#45;&gt;3 -->
<g id="edge3" class="edge">
<title>2&#45;&gt;3</title>
<path fill="none" stroke="#000000" d="M107.1148,-402.4259C103.6704,-393.5154 99.5725,-382.9144 95.7957,-373.1439"/>
<polygon fill="#000000" stroke="#000000" points="99.0322,-371.809 92.162,-363.7436 92.503,-374.3329 99.0322,-371.809"/>
</g>
<!-- 4 -->
<g id="node5" class="node">
<title>4</title>
<ellipse fill="#836fff" stroke="#000000" cx="22.098" cy="-262.6863" rx="22.1965" ry="22.1965"/>
<text text-anchor="middle" x="22.098" y="-258.9863" font-family="Times,serif" font-size="14.00" fill="#000000">1,0</text>
</g>
<!-- 3&#45;&gt;4 -->
<g id="edge4" class="edge">
<title>3&#45;&gt;4</title>
<path fill="none" stroke="#000000" d="M70.3382,-325.0842C61.9902,-314.2862 51.1965,-300.3247 41.9364,-288.3469"/>
<polygon fill="#000000" stroke="#000000" points="44.7048,-286.2053 35.8194,-280.4346 39.1668,-290.4868 44.7048,-286.2053"/>
</g>
<!-- 6 -->
<g id="node7" class="node">
<title>6</title>
<ellipse fill="#836fff" stroke="#000000" cx="84.098" cy="-262.6863" rx="22.1965" ry="22.1965"/>
<text text-anchor="middle" x="84.098" y="-258.9863" font-family="Times,serif" font-size="14.00" fill="#000000">0,2</text>
</g>
<!-- 3&#45;&gt;6 -->
<g id="edge6" class="edge">
<title>3&#45;&gt;6</title>
<path fill="none" stroke="#000000" d="M84.098,-320.5433C84.098,-312.6354 84.098,-303.5728 84.098,-295.0032"/>
<polygon fill="#000000" stroke="#000000" points="87.5981,-294.9055 84.098,-284.9056 80.5981,-294.9056 87.5981,-294.9055"/>
</g>
<!-- 5 -->
<g id="node6" class="node">
<title>5</title>
<ellipse fill="#836fff" stroke="#000000" cx="22.098" cy="-182.4902" rx="22.1965" ry="22.1965"/>
<text text-anchor="middle" x="22.098" y="-178.7902" font-family="Times,serif" font-size="14.00" fill="#000000">0,1</text>
</g>
<!-- 4&#45;&gt;5 -->
<g id="edge5" class="edge">
<title>4&#45;&gt;5</title>
<path fill="none" stroke="#000000" d="M22.098,-240.3472C22.098,-232.4393 22.098,-223.3767 22.098,-214.8071"/>
<polygon fill="#000000" stroke="#000000" points="25.5981,-214.7094 22.098,-204.7095 18.5981,-214.7095 25.5981,-214.7094"/>
</g>
<!-- 8 -->
<g id="node9" class="node">
<title>8</title>
<ellipse fill="#836fff" stroke="#000000" cx="146.098" cy="-342.8824" rx="22.1965" ry="22.1965"/>
<text text-anchor="middle" x="146.098" y="-339.1824" font-family="Times,serif" font-size="14.00" fill="#000000">1,2</text>
</g>
<!-- 7&#45;&gt;8 -->
<g id="edge8" class="edge">
<title>7&#45;&gt;8</title>
<path fill="none" stroke="#000000" d="M169.1148,-402.4259C165.6704,-393.5154 161.5725,-382.9144 157.7957,-373.1439"/>
<polygon fill="#000000" stroke="#000000" points="161.0322,-371.809 154.162,-363.7436 154.503,-374.3329 161.0322,-371.809"/>
</g>
<!-- 14 -->
<g id="node15" class="node">
<title>14</title>
<ellipse fill="#836fff" stroke="#000000" cx="208.098" cy="-342.8824" rx="22.1965" ry="22.1965"/>
<text text-anchor="middle" x="208.098" y="-339.1824" font-family="Times,serif" font-size="14.00" fill="#000000">0,4</text>
</g>
<!-- 7&#45;&gt;14 -->
<g id="edge14" class="edge">
<title>7&#45;&gt;14</title>
<path fill="none" stroke="#000000" d="M185.0813,-402.4259C188.5257,-393.5154 192.6235,-382.9144 196.4004,-373.1439"/>
<polygon fill="#000000" stroke="#000000" points="199.6931,-374.3329 200.0341,-363.7436 193.1639,-371.809 199.6931,-374.3329"/>
</g>
<!-- 9 -->
<g id="node10" class="node">
<title>9</title>
<ellipse fill="#836fff" stroke="#000000" cx="146.098" cy="-262.6863" rx="22.1965" ry="22.1965"/>
<text text-anchor="middle" x="146.098" y="-258.9863" font-family="Times,serif" font-size="14.00" fill="#000000">1,1</text>
</g>
<!-- 8&#45;&gt;9 -->
<g id="edge9" class="edge">
<title>8&#45;&gt;9</title>
<path fill="none" stroke="#000000" d="M146.098,-320.5433C146.098,-312.6354 146.098,-303.5728 146.098,-295.0032"/>
<polygon fill="#000000" stroke="#000000" points="149.5981,-294.9055 146.098,-284.9056 142.5981,-294.9056 149.5981,-294.9055"/>
</g>
<!-- 13 -->
<g id="node14" class="node">
<title>13</title>
<ellipse fill="#836fff" stroke="#000000" cx="208.098" cy="-262.6863" rx="22.1965" ry="22.1965"/>
<text text-anchor="middle" x="208.098" y="-258.9863" font-family="Times,serif" font-size="14.00" fill="#000000">0,3</text>
</g>
<!-- 8&#45;&gt;13 -->
<g id="edge13" class="edge">
<title>8&#45;&gt;13</title>
<path fill="none" stroke="#000000" d="M159.8578,-325.0842C168.2058,-314.2862 178.9995,-300.3247 188.2597,-288.3469"/>
<polygon fill="#000000" stroke="#000000" points="191.0293,-290.4868 194.3767,-280.4346 185.4913,-286.2053 191.0293,-290.4868"/>
</g>
<!-- 10 -->
<g id="node11" class="node">
<title>10</title>
<ellipse fill="#836fff" stroke="#000000" cx="115.098" cy="-182.4902" rx="22.1965" ry="22.1965"/>
<text text-anchor="middle" x="115.098" y="-178.7902" font-family="Times,serif" font-size="14.00" fill="#000000">1,0</text>
</g>
<!-- 9&#45;&gt;10 -->
<g id="edge10" class="edge">
<title>9&#45;&gt;10</title>
<path fill="none" stroke="#000000" d="M138.1148,-242.0338C134.6704,-233.1232 130.5725,-222.5223 126.7957,-212.7517"/>
<polygon fill="#000000" stroke="#000000" points="130.0322,-211.4169 123.162,-203.3514 123.503,-213.9408 130.0322,-211.4169"/>
</g>
<!-- 12 -->
<g id="node13" class="node">
<title>12</title>
<ellipse fill="#836fff" stroke="#000000" cx="177.098" cy="-182.4902" rx="22.1965" ry="22.1965"/>
<text text-anchor="middle" x="177.098" y="-178.7902" font-family="Times,serif" font-size="14.00" fill="#000000">0,2</text>
</g>
<!-- 9&#45;&gt;12 -->
<g id="edge12" class="edge">
<title>9&#45;&gt;12</title>
<path fill="none" stroke="#000000" d="M154.0813,-242.0338C157.5257,-233.1232 161.6235,-222.5223 165.4004,-212.7517"/>
<polygon fill="#000000" stroke="#000000" points="168.6931,-213.9408 169.0341,-203.3514 162.1639,-211.4169 168.6931,-213.9408"/>
</g>
<!-- 11 -->
<g id="node12" class="node">
<title>11</title>
<ellipse fill="#836fff" stroke="#000000" cx="115.098" cy="-102.2941" rx="22.1965" ry="22.1965"/>
<text text-anchor="middle" x="115.098" y="-98.5941" font-family="Times,serif" font-size="14.00" fill="#000000">0,1</text>
</g>
<!-- 10&#45;&gt;11 -->
<g id="edge11" class="edge">
<title>10&#45;&gt;11</title>
<path fill="none" stroke="#000000" d="M115.098,-160.1511C115.098,-152.2433 115.098,-143.1806 115.098,-134.611"/>
<polygon fill="#000000" stroke="#000000" points="118.5981,-134.5134 115.098,-124.5134 111.5981,-134.5134 118.5981,-134.5134"/>
</g>
<!-- 16 -->
<g id="node17" class="node">
<title>16</title>
<ellipse fill="#836fff" stroke="#000000" cx="270.098" cy="-423.0784" rx="22.1965" ry="22.1965"/>
<text text-anchor="middle" x="270.098" y="-419.3784" font-family="Times,serif" font-size="14.00" fill="#000000">1,4</text>
</g>
<!-- 15&#45;&gt;16 -->
<g id="edge16" class="edge">
<title>15&#45;&gt;16</title>
<path fill="none" stroke="#000000" d="M270.098,-480.9354C270.098,-473.0276 270.098,-463.9649 270.098,-455.3954"/>
<polygon fill="#000000" stroke="#000000" points="273.5981,-455.2977 270.098,-445.2977 266.5981,-455.2977 273.5981,-455.2977"/>
</g>
<!-- 26 -->
<g id="node27" class="node">
<title>26</title>
<ellipse fill="#836fff" stroke="#000000" cx="332.098" cy="-423.0784" rx="22.1965" ry="22.1965"/>
<text text-anchor="middle" x="332.098" y="-419.3784" font-family="Times,serif" font-size="14.00" fill="#000000">0,6</text>
</g>
<!-- 15&#45;&gt;26 -->
<g id="edge26" class="edge">
<title>15&#45;&gt;26</title>
<path fill="none" stroke="#000000" d="M283.8578,-485.4764C292.2058,-474.6784 302.9995,-460.7169 312.2597,-448.739"/>
<polygon fill="#000000" stroke="#000000" points="315.0293,-450.8789 318.3767,-440.8268 309.4913,-446.5975 315.0293,-450.8789"/>
</g>
<!-- 17 -->
<g id="node18" class="node">
<title>17</title>
<ellipse fill="#836fff" stroke="#000000" cx="270.098" cy="-342.8824" rx="22.1965" ry="22.1965"/>
<text text-anchor="middle" x="270.098" y="-339.1824" font-family="Times,serif" font-size="14.00" fill="#000000">1,3</text>
</g>
<!-- 16&#45;&gt;17 -->
<g id="edge17" class="edge">
<title>16&#45;&gt;17</title>
<path fill="none" stroke="#000000" d="M270.098,-400.7394C270.098,-392.8315 270.098,-383.7688 270.098,-375.1993"/>
<polygon fill="#000000" stroke="#000000" points="273.5981,-375.1016 270.098,-365.1016 266.5981,-375.1017 273.5981,-375.1016"/>
</g>
<!-- 25 -->
<g id="node26" class="node">
<title>25</title>
<ellipse fill="#836fff" stroke="#000000" cx="332.098" cy="-342.8824" rx="22.1965" ry="22.1965"/>
<text text-anchor="middle" x="332.098" y="-339.1824" font-family="Times,serif" font-size="14.00" fill="#000000">0,5</text>
</g>
<!-- 16&#45;&gt;25 -->
<g id="edge25" class="edge">
<title>16&#45;&gt;25</title>
<path fill="none" stroke="#000000" d="M283.8578,-405.2803C292.2058,-394.4823 302.9995,-380.5208 312.2597,-368.5429"/>
<polygon fill="#000000" stroke="#000000" points="315.0293,-370.6829 318.3767,-360.6307 309.4913,-366.4014 315.0293,-370.6829"/>
</g>
<!-- 18 -->
<g id="node19" class="node">
<title>18</title>
<ellipse fill="#836fff" stroke="#000000" cx="270.098" cy="-262.6863" rx="22.1965" ry="22.1965"/>
<text text-anchor="middle" x="270.098" y="-258.9863" font-family="Times,serif" font-size="14.00" fill="#000000">1,2</text>
</g>
<!-- 17&#45;&gt;18 -->
<g id="edge18" class="edge">
<title>17&#45;&gt;18</title>
<path fill="none" stroke="#000000" d="M270.098,-320.5433C270.098,-312.6354 270.098,-303.5728 270.098,-295.0032"/>
<polygon fill="#000000" stroke="#000000" points="273.5981,-294.9055 270.098,-284.9056 266.5981,-294.9056 273.5981,-294.9055"/>
</g>
<!-- 24 -->
<g id="node25" class="node">
<title>24</title>
<ellipse fill="#836fff" stroke="#000000" cx="332.098" cy="-262.6863" rx="22.1965" ry="22.1965"/>
<text text-anchor="middle" x="332.098" y="-258.9863" font-family="Times,serif" font-size="14.00" fill="#000000">0,4</text>
</g>
<!-- 17&#45;&gt;24 -->
<g id="edge24" class="edge">
<title>17&#45;&gt;24</title>
<path fill="none" stroke="#000000" d="M283.8578,-325.0842C292.2058,-314.2862 302.9995,-300.3247 312.2597,-288.3469"/>
<polygon fill="#000000" stroke="#000000" points="315.0293,-290.4868 318.3767,-280.4346 309.4913,-286.2053 315.0293,-290.4868"/>
</g>
<!-- 19 -->
<g id="node20" class="node">
<title>19</title>
<ellipse fill="#836fff" stroke="#000000" cx="254.098" cy="-182.4902" rx="22.1965" ry="22.1965"/>
<text text-anchor="middle" x="254.098" y="-178.7902" font-family="Times,serif" font-size="14.00" fill="#000000">1,1</text>
</g>
<!-- 18&#45;&gt;19 -->
<g id="edge19" class="edge">
<title>18&#45;&gt;19</title>
<path fill="none" stroke="#000000" d="M265.726,-240.7723C264.1033,-232.6391 262.228,-223.2396 260.4635,-214.3955"/>
<polygon fill="#000000" stroke="#000000" points="263.8538,-213.4995 258.4648,-204.3776 256.9891,-214.8692 263.8538,-213.4995"/>
</g>
<!-- 23 -->
<g id="node24" class="node">
<title>23</title>
<ellipse fill="#836fff" stroke="#000000" cx="316.098" cy="-182.4902" rx="22.1965" ry="22.1965"/>
<text text-anchor="middle" x="316.098" y="-178.7902" font-family="Times,serif" font-size="14.00" fill="#000000">0,3</text>
</g>
<!-- 18&#45;&gt;23 -->
<g id="edge23" class="edge">
<title>18&#45;&gt;23</title>
<path fill="none" stroke="#000000" d="M281.2334,-243.273C286.8836,-233.4224 293.8494,-221.2783 300.0655,-210.4413"/>
<polygon fill="#000000" stroke="#000000" points="303.1257,-212.1405 305.0653,-201.7247 297.0537,-208.6575 303.1257,-212.1405"/>
</g>
<!-- 20 -->
<g id="node21" class="node">
<title>20</title>
<ellipse fill="#836fff" stroke="#000000" cx="208.098" cy="-102.2941" rx="22.1965" ry="22.1965"/>
<text text-anchor="middle" x="208.098" y="-98.5941" font-family="Times,serif" font-size="14.00" fill="#000000">1,0</text>
</g>
<!-- 19&#45;&gt;20 -->
<g id="edge20" class="edge">
<title>19&#45;&gt;20</title>
<path fill="none" stroke="#000000" d="M242.9627,-163.077C237.3125,-153.2263 230.3466,-141.0822 224.1306,-130.2452"/>
<polygon fill="#000000" stroke="#000000" points="227.1424,-128.4615 219.1308,-121.5286 221.0704,-131.9444 227.1424,-128.4615"/>
</g>
<!-- 22 -->
<g id="node23" class="node">
<title>22</title>
<ellipse fill="#836fff" stroke="#000000" cx="270.098" cy="-102.2941" rx="22.1965" ry="22.1965"/>
<text text-anchor="middle" x="270.098" y="-98.5941" font-family="Times,serif" font-size="14.00" fill="#000000">0,2</text>
</g>
<!-- 19&#45;&gt;22 -->
<g id="edge22" class="edge">
<title>19&#45;&gt;22</title>
<path fill="none" stroke="#000000" d="M258.4701,-160.5763C260.0928,-152.4431 261.9681,-143.0435 263.7326,-134.1994"/>
<polygon fill="#000000" stroke="#000000" points="267.207,-134.6731 265.7313,-124.1816 260.3423,-133.3035 267.207,-134.6731"/>
</g>
<!-- 21 -->
<g id="node22" class="node">
<title>21</title>
<ellipse fill="#836fff" stroke="#000000" cx="208.098" cy="-22.098" rx="22.1965" ry="22.1965"/>
<text text-anchor="middle" x="208.098" y="-18.398" font-family="Times,serif" font-size="14.00" fill="#000000">0,1</text>
</g>
<!-- 20&#45;&gt;21 -->
<g id="edge21" class="edge">
<title>20&#45;&gt;21</title>
<path fill="none" stroke="#000000" d="M208.098,-79.955C208.098,-72.0472 208.098,-62.9845 208.098,-54.415"/>
<polygon fill="#000000" stroke="#000000" points="211.5981,-54.3173 208.098,-44.3173 204.5981,-54.3174 211.5981,-54.3173"/>
</g>
</g>
</svg>
